# xmcd
#
# Track frame offsets: 
#        150
#        14917
#        26515
#        40971
#        51312
#        67584
#        81148
#        91675
#        102831
#        112672
#        125235
#
# Disc length: 1901 seconds
#
# Revision: 2
# Processed by: cddbd v1.5.2PL0 Copyright (c) Steve Scherf et al.
# Submitted via: ExactAudioCopyFreeDBPlugin 1.0
#
DISCID=85076b0b
DTITLE=Olivia Newton John - 1975 - Clearly Love
DYEAR=1975
DGENRE=Country
TTITLE0=Something Better To Do
TTITLE1=Lovers
TTITLE2=Slow Down Jackson
TTITLE3=He's My Rock
TTITLE4=Sail Into Tomorrow
TTITLE5=Crying, Laughing, Loving, Lying
TTITLE6=Clearly Love
TTITLE7=Let It Shine
TTITLE8=Summertime Blues
TTITLE9=Just A Lot Of Folk
TTITLE10=He Ain't Heavy... He's My Brother
EXTD=
EXTT0=
EXTT1=
EXTT2=
EXTT3=
EXTT4=
EXTT5=
EXTT6=
EXTT7=
EXTT8=
EXTT9=The Marshmallow Song
EXTT10=
PLAYORDER=
